<svg width="100%" height="100%" id="svg" viewBox="0 0 1440 590" xmlns="http://www.w3.org/2000/svg" class="transition duration-300 ease-in-out delay-150"><defs><linearGradient id="gradient" x1="35%" y1="2%" x2="65%" y2="98%"><stop offset="5%" stop-color="#fcb900"></stop><stop offset="95%" stop-color="#7bdcb5"></stop></linearGradient></defs><path d="M 0,600 L 0,600 C 168.53333333333336,422 337.0666666666667,244 507,134 C 676.9333333333333,24 848.2666666666667,-18 1004,71 C 1159.7333333333333,160 1299.8666666666668,380 1440,600 L 1440,600 L 0,600 Z" stroke="none" stroke-width="0" fill="url(#gradient)" fill-opacity="0.265" class="transition-all duration-300 ease-in-out delay-150 path-0"></path><defs><linearGradient id="gradient" x1="35%" y1="2%" x2="65%" y2="98%"><stop offset="5%" stop-color="#fcb900"></stop><stop offset="95%" stop-color="#7bdcb5"></stop></linearGradient></defs><path d="M 0,600 L 0,600 C 122,426.6666666666667 244,253.33333333333331 431,185 C 618,116.66666666666667 870,153.33333333333337 1049,240 C 1228,326.66666666666663 1334,463.3333333333333 1440,600 L 1440,600 L 0,600 Z" stroke="none" stroke-width="0" fill="url(#gradient)" fill-opacity="0.4" class="transition-all duration-300 ease-in-out delay-150 path-1"></path><defs><linearGradient id="gradient" x1="35%" y1="2%" x2="65%" y2="98%"><stop offset="5%" stop-color="#fcb900"></stop><stop offset="95%" stop-color="#7bdcb5"></stop></linearGradient></defs><path d="M 0,600 L 0,600 C 167.33333333333337,504.4 334.66666666666674,408.8 477,346 C 619.3333333333333,283.2 736.6666666666665,253.20000000000005 893,301 C 1049.3333333333335,348.79999999999995 1244.6666666666667,474.4 1440,600 L 1440,600 L 0,600 Z" stroke="none" stroke-width="0" fill="url(#gradient)" fill-opacity="0.53" class="transition-all duration-300 ease-in-out delay-150 path-2"></path><defs><linearGradient id="gradient" x1="35%" y1="2%" x2="65%" y2="98%"><stop offset="5%" stop-color="#fcb900"></stop><stop offset="95%" stop-color="#7bdcb5"></stop></linearGradient></defs><path d="M 0,600 L 0,600 C 198.53333333333336,519.0666666666666 397.0666666666667,438.1333333333333 553,407 C 708.9333333333333,375.8666666666667 822.2666666666667,394.53333333333336 963,435 C 1103.7333333333333,475.46666666666664 1271.8666666666668,537.7333333333333 1440,600 L 1440,600 L 0,600 Z" stroke="none" stroke-width="0" fill="url(#gradient)" fill-opacity="1" class="transition-all duration-300 ease-in-out delay-150 path-3"></path></svg>